<svg width="16" height="10" viewBox="0 0 16 10" fill="none" xmlns="http://www.w3.org/2000/svg">
<path id="Vector" d="M1.24934 0.750336C1.1011 0.750466 0.956224 0.794524 0.833008 0.876944C0.709793 0.959364 0.613765 1.07645 0.557054 1.21341C0.500342 1.35038 0.485491 1.50107 0.514375 1.64647C0.54326 1.79187 0.614584 1.92545 0.71934 2.03034L7.71934 9.03034C7.85997 9.17079 8.05059 9.24968 8.24934 9.24968C8.44809 9.24968 8.63872 9.17079 8.77934 9.03034L15.7793 2.03034C15.8841 1.92545 15.9554 1.79187 15.9843 1.64647C16.0132 1.50107 15.9983 1.35038 15.9416 1.21341C15.8849 1.07645 15.7889 0.959364 15.6657 0.876944C15.5425 0.794524 15.3976 0.750466 15.2493 0.750336H1.24934Z" fill="black"/>
</svg>
